REM MD5 cf4c617c444f8ffaf1b0fcee1d5ced54
FILE "Andretti Racing (Japan).bin" BINARY
  TRACK 01 MODE2/2352
    INDEX 01 00:00:00
  TRACK 02 AUDIO
    INDEX 00 55:24:51
    INDEX 01 55:26:51
  TRACK 03 AUDIO
    INDEX 00 57:37:57
    INDEX 01 57:39:57
  TRACK 04 AUDIO
    INDEX 00 60:08:06
    INDEX 01 60:10:06
  TRACK 05 AUDIO
    INDEX 00 62:45:53
    INDEX 01 62:47:53
  TRACK 06 AUDIO
    INDEX 00 65:10:18
    INDEX 01 65:12:18
REM LEADOUT 68:06:30
